<svg xmlns="http://www.w3.org/2000/svg" viewBox="0 0 591.72 594.57"><defs><style>.cls-1{fill:#005aa8;}</style></defs><g id="Layer_2" data-name="Layer 2"><g id="Layer_2-2" data-name="Layer 2"><path class="cls-1" d="M420.29,21.63,449,31.14l-92.87,74.13L355.16,0l28,9.3-4.77,51.11Z"/><path class="cls-1" d="M418.56,110.78a6.54,6.54,0,0,0,.6,2.86,5.84,5.84,0,0,0,1.9,2.33,11,11,0,0,0,5.91,2.77,16.16,16.16,0,0,0,6.48-.56,19.61,19.61,0,0,0,6.28-3.18l-4,7a23.25,23.25,0,0,1-9.65,4.9,22.93,22.93,0,0,1-10.55,0,27.51,27.51,0,0,1-10.31-5,22.58,22.58,0,0,1-7.1-8.05,16.35,16.35,0,0,1-1.86-9.62,16.14,16.14,0,0,1,4.89-9.3A19,19,0,0,1,411,89.53a24.6,24.6,0,0,1,11.51.72,38.45,38.45,0,0,1,17.69,11.33,37.91,37.91,0,0,1,4.48,6.1,20.41,20.41,0,0,1,2.47,6.25L440,121a18.35,18.35,0,0,0-2.94-6.61,24.46,24.46,0,0,0-5.21-5.14,17,17,0,0,0-4.39-2.46,9.16,9.16,0,0,0-4.26-.53,5.26,5.26,0,0,0-3.48,1.88A3.55,3.55,0,0,0,418.56,110.78Zm15-39.64a117.85,117.85,0,0,1,13.66,4.5A59.13,59.13,0,0,1,461,83.43a40.26,40.26,0,0,1,9.5,9.94,21.92,21.92,0,0,1,4,11.3c.17,3.78-1.35,7.35-4.53,10.72L438.49,145.3l-17.36-13,28-26.07A8,8,0,0,0,451,103.4a5.51,5.51,0,0,0,.38-3,7.53,7.53,0,0,0-1.27-2.86,14.71,14.71,0,0,0-2.75-3A26.88,26.88,0,0,0,441,90.54a44.34,44.34,0,0,0-7-2.6c-2.34-.65-4.3-1.17-5.88-1.58Z"/><path class="cls-1" d="M549.19,117.37l-91.54,52-14.5-17.7,91.46-52Z"/><path class="cls-1" d="M474.06,189.43a25.57,25.57,0,0,1,4.15-14.15,27.52,27.52,0,0,1,11.81-9.8,35.11,35.11,0,0,1,14.05-3.35,32.62,32.62,0,0,1,13.76,2.64A40.19,40.19,0,0,1,530,173.05a45.41,45.41,0,0,1,9.35,13.56q4.08,8.8,3.77,16.21a23.2,23.2,0,0,1-4.29,12.9q-4,5.5-11.82,9.13a37.73,37.73,0,0,1-4.42,1.69,37,37,0,0,1-4.53,1.14l-24-51.78,10.74-5,15.93,34.4-7.57-1.78a6.6,6.6,0,0,0,3,.24,9,9,0,0,0,2.4-.67,19.32,19.32,0,0,0,5.07-3.3,7.79,7.79,0,0,0,2.5-4.09,8,8,0,0,0-.83-5,12.29,12.29,0,0,0-3.61-4.78,12,12,0,0,0-4.84-2.23,20.22,20.22,0,0,0-6.33-.22A53.44,53.44,0,0,0,502.7,185a17.54,17.54,0,0,0-7.3,3.38,9,9,0,0,0-3.35,5.43,11.29,11.29,0,0,0,1.14,6.73,16.61,16.61,0,0,0,4.92,6.52,17.53,17.53,0,0,0,7.11,3L510,230.11a33.57,33.57,0,0,1-18.52-6.44q-8-5.89-13.14-17Q474,197.37,474.06,189.43Z"/><path class="cls-1" d="M495.66,260.08l-3-22,62,2.21,3,22.14ZM538.34,276a7.16,7.16,0,0,0,.53-4,8.78,8.78,0,0,0-2.48-5.43,18.14,18.14,0,0,0-5.41-3.77,16.54,16.54,0,0,0-6.85-1.55l8.9-3.62a32.6,32.6,0,0,1,12.69,3,34.69,34.69,0,0,1,10.6,7.36,17.13,17.13,0,0,1,5.06,9.65,12.09,12.09,0,0,1-.82,6.35,11.94,11.94,0,0,1-3.44,4.83l-20.75-9.54A17.92,17.92,0,0,0,538.34,276Z"/><path class="cls-1" d="M557.07,326.54,496.8,311.7l1.57-22,60.28,14.84Zm32-14.31a14,14,0,0,1,2.65,9.59,13.59,13.59,0,0,1-4,8.91,10.86,10.86,0,0,1-8.9,3.23,10.54,10.54,0,0,1-8.34-4.53,15.05,15.05,0,0,1,1.32-18.5,10.61,10.61,0,0,1,8.9-3.23A10.78,10.78,0,0,1,589,312.23Z"/><path class="cls-1" d="M494.87,338.09a25.5,25.5,0,0,1,12.75-7.43,27.57,27.57,0,0,1,15.3,1,35.06,35.06,0,0,1,12.51,7.23,32.59,32.59,0,0,1,8.17,11.38,40.1,40.1,0,0,1,3.15,14.4A45.08,45.08,0,0,1,544.21,381q-3.09,9.19-8.41,14.35a23.15,23.15,0,0,1-12,6.42q-6.66,1.26-14.86-1.5a37.71,37.71,0,0,1-4.37-1.82,35.21,35.21,0,0,1-4.07-2.29l18.22-54.07,11.21,3.78-12.1,35.92-4.27-6.49a6.7,6.7,0,0,0,2,2.22,8.77,8.77,0,0,0,2.21,1.16,19.22,19.22,0,0,0,5.94,1.09,7.81,7.81,0,0,0,4.64-1.24,8.11,8.11,0,0,0,2.81-4.18,12.48,12.48,0,0,0,.67-5.95,12.11,12.11,0,0,0-2-4.95,20.18,20.18,0,0,0-4.44-4.51,55.46,55.46,0,0,0-6.67-4.36A17.52,17.52,0,0,0,511.1,352a8.9,8.9,0,0,0-6.16,1.64,11.26,11.26,0,0,0-3.81,5.66,16.65,16.65,0,0,0-.91,8.12,17.48,17.48,0,0,0,3.09,7.07L493,392.32a33.57,33.57,0,0,1-9-17.42q-1.76-9.79,2.15-21.38Q489.36,343.8,494.87,338.09Z"/><path class="cls-1" d="M456.62,538.28l-23.54,18.91L421.19,439l88.93,56.34-23,18.49-40.34-31.74Z"/><path class="cls-1" d="M407.89,522.56a116.43,116.43,0,0,1-11.18,9A59.37,59.37,0,0,1,382.65,539a40.3,40.3,0,0,1-13.51,2.6,22,22,0,0,1-11.66-2.76q-4.89-2.86-6.55-9.63l-8-42.7L363.22,479,370,516.63a7.85,7.85,0,0,0,1.37,3.11,5.52,5.52,0,0,0,2.27,1.93,7.72,7.72,0,0,0,3.09.48,15,15,0,0,0,4-.7,27.26,27.26,0,0,0,6.86-3.11,45.36,45.36,0,0,0,6-4.5q2.72-2.43,4.51-4.08ZM382.7,488.49a6.62,6.62,0,0,0-2.72-1,6,6,0,0,0-3,.33,10.89,10.89,0,0,0-5.52,3.47,15.85,15.85,0,0,0-3,5.74,19.68,19.68,0,0,0-.74,7L364,496.84a23.11,23.11,0,0,1,1.11-10.77,22.84,22.84,0,0,1,5.72-8.86,27.66,27.66,0,0,1,9.77-6,22.55,22.55,0,0,1,10.62-1.6,16.33,16.33,0,0,1,9.08,3.65,16.07,16.07,0,0,1,5.17,9.15,18.85,18.85,0,0,1-.87,11.24,24.48,24.48,0,0,1-6.84,9.28,38.73,38.73,0,0,1-11.41,6.71,39.12,39.12,0,0,1-7.7,2,38.64,38.64,0,0,1-7.56.46,20.47,20.47,0,0,1-6.58-1.31l-2.1-9.86a18.64,18.64,0,0,0,7.15,1.1,24.72,24.72,0,0,0,7.14-1.58,17.42,17.42,0,0,0,4.45-2.36,9.26,9.26,0,0,0,2.75-3.29,5.3,5.3,0,0,0,.31-4A3.6,3.6,0,0,0,382.7,488.49Z"/><path class="cls-1" d="M306.12,594.57l6.23-105.07L335.09,487,329,592Z"/><path class="cls-1" d="M286.52,492.34a25.57,25.57,0,0,1,9.65,11.16A27.55,27.55,0,0,1,298,518.73a35.06,35.06,0,0,1-4.8,13.63,32.51,32.51,0,0,1-9.69,10.12,39.73,39.73,0,0,1-13.56,5.75,45,45,0,0,1-16.46.51q-9.61-1.35-15.66-5.63a23.22,23.22,0,0,1-8.52-10.6q-2.46-6.32-1.26-14.88a35.8,35.8,0,0,1,1-4.63,34.92,34.92,0,0,1,1.5-4.42l56.5,7.94-1.65,11.72L247.83,523l5.6-5.39a6.59,6.59,0,0,0-1.81,2.37,9.14,9.14,0,0,0-.74,2.38,19.41,19.41,0,0,0,0,6,7.85,7.85,0,0,0,2.08,4.32,8,8,0,0,0,4.62,2,12.48,12.48,0,0,0,6-.44,12.08,12.08,0,0,0,4.49-2.86,20.09,20.09,0,0,0,3.62-5.2,53.71,53.71,0,0,0,3.05-7.36,17.44,17.44,0,0,0,1.12-8,8.89,8.89,0,0,0-2.75-5.75,11.25,11.25,0,0,0-6.27-2.7,16.71,16.71,0,0,0-8.14.6,17.48,17.48,0,0,0-6.39,4.34l-19.44-6.89a33.56,33.56,0,0,1,15.46-12.07q9.3-3.53,21.41-1.82Q279.88,488,286.52,492.34Z"/><path class="cls-1" d="M178.9,499.39A7.21,7.21,0,0,0,182,502a8.76,8.76,0,0,0,5.91.86,17.92,17.92,0,0,0,6.1-2.5,16.32,16.32,0,0,0,5-4.91l-1.78,9.45a32.67,32.67,0,0,1-9.45,9,34.63,34.63,0,0,1-11.93,4.91,17.11,17.11,0,0,1-10.85-1,12.68,12.68,0,0,1-7.08-9.64L177.21,496A18,18,0,0,0,178.9,499.39Zm36.51-27.23,20.11,9.44L200,532.51,179.78,523Z"/><path class="cls-1" d="M120.9,522.21a14.08,14.08,0,0,1-9.49-3,13.64,13.64,0,0,1-5.32-8.18,10.9,10.9,0,0,1,2.14-9.23,10.55,10.55,0,0,1,8.34-4.53,15.05,15.05,0,0,1,14.8,11.18,10.62,10.62,0,0,1-2.13,9.22A10.83,10.83,0,0,1,120.9,522.21Zm5.38-34.61,45.26-42.49,17.61,13.31L143.9,500.91Z"/><path class="cls-1" d="M150.42,429.11a25.57,25.57,0,0,1-.68,14.74,27.5,27.5,0,0,1-9.16,12.3,35.08,35.08,0,0,1-12.86,6.59,32.56,32.56,0,0,1-14,.68,39.76,39.76,0,0,1-13.8-5.16,45.07,45.07,0,0,1-12.29-10.95q-6-7.59-7.5-14.86a23.28,23.28,0,0,1,1.11-13.55q2.56-6.28,9.32-11.67a36,36,0,0,1,3.9-2.68,34.37,34.37,0,0,1,4.13-2.18L134.14,447l-9.26,7.37-23.61-29.65,7.77-.06a6.49,6.49,0,0,0-2.94.47,8.73,8.73,0,0,0-2.17,1.22,19.34,19.34,0,0,0-4.15,4.4,7.85,7.85,0,0,0-1.46,4.57,7.93,7.93,0,0,0,2,4.62,12.43,12.43,0,0,0,4.64,3.8,12.09,12.09,0,0,0,5.23,1,20.29,20.29,0,0,0,6.2-1.28,52.91,52.91,0,0,0,7.28-3.25,17.44,17.44,0,0,0,6.29-5,8.94,8.94,0,0,0,2-6.07,11.28,11.28,0,0,0-2.7-6.27,16.5,16.5,0,0,0-6.32-5.16,17.52,17.52,0,0,0-7.62-1.25l-9.37-18.38A33.53,33.53,0,0,1,125.42,400q9.18,3.84,16.8,13.41Q148.6,421.38,150.42,429.11Z"/><path class="cls-1" d="M3.05,288.22l-3-30,105.65,54.37L10,356.5,7,327.13l48.58-16.57Z"/><path class="cls-1" d="M42.7,256a117.68,117.68,0,0,1-1.53-14.3,59.25,59.25,0,0,1,1.39-15.84,40.51,40.51,0,0,1,5.14-12.75,22.06,22.06,0,0,1,8.65-8.3q5.07-2.57,11.64-.29l40.23,16.41-4.68,21.16L68.25,227.3a8,8,0,0,0-3.35-.54,5.49,5.49,0,0,0-2.85.87A7.51,7.51,0,0,0,60,230a14.82,14.82,0,0,0-1.58,3.74,26.69,26.69,0,0,0-1.1,7.45,45.48,45.48,0,0,0,.52,7.47q.57,3.6,1,6ZM85,253.28a6.65,6.65,0,0,0,2.36-1.73,6,6,0,0,0,1.34-2.7,10.92,10.92,0,0,0,.08-6.52,15.83,15.83,0,0,0-3.17-5.67,19.31,19.31,0,0,0-5.49-4.42l8,.82a23.29,23.29,0,0,1,8.45,6.77,23,23,0,0,1,4.34,9.61,27.65,27.65,0,0,1-.29,11.45,22.55,22.55,0,0,1-4.41,9.78,16.37,16.37,0,0,1-8,5.66,16.1,16.1,0,0,1-10.49-.62,19,19,0,0,1-9-6.83,24.55,24.55,0,0,1-4.09-10.78,38.39,38.39,0,0,1,3-20.78,37.87,37.87,0,0,1,3.71-6.6,20.49,20.49,0,0,1,4.68-4.82l9.42,3.58a18.54,18.54,0,0,0-4.81,5.41,24.81,24.81,0,0,0-2.54,6.86,17.51,17.51,0,0,0-.43,5,9.07,9.07,0,0,0,1.28,4.1,5.27,5.27,0,0,0,3.14,2.4A3.6,3.6,0,0,0,85,253.28Z"/><path class="cls-1" d="M37.41,131.39l84.88,62.25-10.21,20.47L27.14,152Z"/><path class="cls-1" d="M133.91,170.46a25.56,25.56,0,0,1-14.61,2,27.53,27.53,0,0,1-13.77-6.76,35,35,0,0,1-8.82-11.45,32.56,32.56,0,0,1-3.23-13.63A40.14,40.14,0,0,1,96,126.13a45,45,0,0,1,8.53-14.08q6.36-7.33,13.24-10.08a23.25,23.25,0,0,1,13.53-1.38q6.65,1.36,13.17,7a40.25,40.25,0,0,1,6.25,7l-37.41,43.09L104.42,150l24.85-28.62,1.48,7.62a6.61,6.61,0,0,0-1-2.8,9.23,9.23,0,0,0-1.6-1.92,19.36,19.36,0,0,0-5.09-3.27,7.73,7.73,0,0,0-4.75-.6,8,8,0,0,0-4.19,2.79,12.4,12.4,0,0,0-2.88,5.25,12.13,12.13,0,0,0,0,5.33,20.63,20.63,0,0,0,2.39,5.86,55.1,55.1,0,0,0,4.52,6.57,17.59,17.59,0,0,0,6.08,5.27,9,9,0,0,0,6.33.83,11.36,11.36,0,0,0,5.67-3.8,16.53,16.53,0,0,0,3.92-7.16,17.45,17.45,0,0,0-.16-7.72L156.3,121A33.45,33.45,0,0,1,158,140.57q-2.1,9.72-10.12,19Q141.19,167.26,133.91,170.46Z"/><path class="cls-1" d="M189.51,121.69l-18.82,11.79L147.12,76.05l18.94-11.86ZM186.4,76.24a7.12,7.12,0,0,0-3.89,1.18,8.79,8.79,0,0,0-3.93,4.51,18,18,0,0,0-1.2,6.47,16.48,16.48,0,0,0,1.41,6.89l-7-6.62a32.61,32.61,0,0,1-2.46-12.82,34.78,34.78,0,0,1,2.33-12.68,17.16,17.16,0,0,1,6.71-8.59,12.67,12.67,0,0,1,11.94-.74l-.14,22.84A18.21,18.21,0,0,0,186.4,76.24Z"/><path class="cls-1" d="M198.73,15.09a14,14,0,0,1,7.66-6.34,13.58,13.58,0,0,1,9.76,0,10.88,10.88,0,0,1,6.6,6.79A10.55,10.55,0,0,1,222,25a14.16,14.16,0,0,1-7.58,6.17,14.09,14.09,0,0,1-9.84.2A10.59,10.59,0,0,1,198,24.56,10.82,10.82,0,0,1,198.73,15.09Zm26.15,23.29L236,99.44,215.31,107,204.15,46Z"/><path class="cls-1" d="M260.88,90.43a25.56,25.56,0,0,1-12-8.59,27.54,27.54,0,0,1-5.34-14.38A35.23,35.23,0,0,1,245,53.08a32.81,32.81,0,0,1,7-12.11,40.1,40.1,0,0,1,11.84-8.77,45.44,45.44,0,0,1,15.88-4.35q9.66-.93,16.55,1.8A23.15,23.15,0,0,1,307.08,38q3.89,5.57,4.72,14.17a37.44,37.44,0,0,1,.13,4.73,34,34,0,0,1-.42,4.65L254.72,67l-1.14-11.78,37.72-3.68-4.17,6.56a6.72,6.72,0,0,0,1.21-2.73,9.62,9.62,0,0,0,.16-2.48,19.36,19.36,0,0,0-1.45-5.88,7.76,7.76,0,0,0-3-3.71,8,8,0,0,0-5-.85,12.39,12.39,0,0,0-5.7,1.82,12.12,12.12,0,0,0-3.7,3.84,20.07,20.07,0,0,0-2.3,5.9,55.07,55.07,0,0,0-1.24,7.87,17.44,17.44,0,0,0,.78,8,9,9,0,0,0,4,4.95A11.26,11.26,0,0,0,277.65,76a16.6,16.6,0,0,0,7.77-2.49,17.32,17.32,0,0,0,5.19-5.72L311.13,70a33.49,33.49,0,0,1-12.2,15.35q-8.21,5.61-20.38,6.79Q268.35,93.12,260.88,90.43Z"/></g></g></svg>